<?xml version="1.0" encoding="UTF-8"?>
<svg version="1.1" xmlns="http://www.w3.org/2000/svg" width="800" height="800">
<path d="M0 0 C264 0 528 0 800 0 C800 264 800 528 800 800 C536 800 272 800 0 800 C0 536 0 272 0 0 Z " fill="#FEFEFE" transform="translate(0,0)"/>
<path d="M0 0 C4.6635389 3.47479369 8.21566217 7.50261819 9.1875 13.375 C9.1875 15.685 9.1875 17.995 9.1875 20.375 C37.2375 20.375 65.2875 20.375 94.1875 20.375 C94.1875 17.735 94.1875 15.095 94.1875 12.375 C95.97539323 6.27512899 99.01816248 2.83967375 104.1875 -0.625 C109.09822981 -2.87575116 113.95770757 -3.67233075 119.19921875 -1.97265625 C124.35576578 0.31586843 128.15850874 3.59569199 131.1875 8.375 C132.74509722 12.43028271 132.1875 15.75601325 132.1875 20.375 C160.2375 20.375 188.2875 20.375 217.1875 20.375 C217.1875 18.065 217.1875 15.755 217.1875 13.375 C218.23536251 7.69658318 220.82368631 4.04626484 225.375 0.56640625 C230.45862618 -2.77520148 234.8518327 -2.93249057 240.7265625 -2.15625 C246.96424551 -0.80970256 250.73147774 2.47184107 254.2421875 7.69140625 C256.62726901 11.93921671 256.2649326 15.65161168 256.1875 20.375 C256.74745163 20.36389694 257.30740326 20.35279388 257.88432312 20.34135437 C263.77403621 20.22973125 269.66344335 20.15491187 275.55395508 20.1003418 C277.74483468 20.07537772 279.93563256 20.04139407 282.1262207 19.99780273 C297.23843691 19.70486354 309.39456735 19.58532061 321.625 29.5625 C328.710565 36.48676759 333.6539639 44.54763648 334.439349 54.59777093 C334.44021577 55.7100845 334.44108255 56.82239808 334.44197559 57.96841812 C334.44780779 59.26094474 334.45363998 60.55347136 334.45964891 61.88516545 C334.45601623 63.30725353 334.45219188 64.72934112 334.44819641 66.15142822 C334.45121849 67.67168323 334.45510825 69.19193672 334.45978898 70.71218753 C334.47007074 74.88234233 334.46788669 79.05241118 334.46360838 83.22257304 C334.46114145 87.72305271 334.470155 92.22351168 334.47764587 96.72398376 C334.49039642 105.53863144 334.49218607 114.35324865 334.48984561 123.16790399 C334.48806246 130.33393194 334.48981204 137.49995064 334.49407005 144.66597748 C334.49466524 145.68596139 334.49526043 146.70594531 334.49587366 147.75683783 C334.49708541 149.82897705 334.49829955 151.90111627 334.49951603 153.97325549 C334.51039324 173.40749199 334.5082284 192.84171114 334.50213119 212.27594861 C334.49696358 230.04780876 334.50821305 247.81961406 334.52722941 265.59146336 C334.54661105 283.84483358 334.55486312 302.09817787 334.55110615 320.35155845 C334.54919439 330.59726754 334.55167917 340.84292998 334.56582069 351.08863068 C334.57773971 359.81235529 334.57913363 368.53600453 334.56703053 377.25973019 C334.56114512 381.70867597 334.56003301 386.15748394 334.57203293 390.60642052 C334.58290286 394.68390347 334.57977523 398.76113371 334.56577124 402.8386049 C334.56312734 404.30897184 334.5654812 405.77935865 334.57350711 407.24970606 C334.63771358 419.89616637 333.16658394 431.16595373 325.1875 441.375 C316.82484918 449.73765082 306.38289747 453.49089757 294.6996212 453.50922108 C292.71977858 453.51590784 292.71977858 453.51590784 290.69993913 453.52272969 C289.23659475 453.5226404 287.77325037 453.52245056 286.30990601 453.52217102 C284.75425488 453.5254713 283.19860461 453.52919721 281.64295542 453.5333125 C277.36569272 453.54332187 273.08844405 453.54704758 268.81117129 453.54970181 C264.19886604 453.55360797 259.58657186 453.56318604 254.97427368 453.57191467 C243.83494255 453.5916694 232.69561052 453.60174366 221.55626625 453.61064246 C216.30972321 453.61502665 211.06318119 453.62039309 205.81663895 453.62563133 C188.37494046 453.64264199 170.9332426 453.65713631 153.49153709 453.66438007 C148.9662005 453.66628994 144.44086392 453.66821028 139.91552734 453.67016602 C138.79078788 453.67064976 137.66604842 453.6711335 136.50722595 453.6716319 C118.28580553 453.67993282 100.06445074 453.70527155 81.84305899 453.73774669 C63.13323094 453.7708204 44.42343625 453.78882908 25.71357882 453.79202431 C15.20959885 453.79418903 4.70571462 453.80293219 -5.79823685 453.82848549 C-14.74343375 453.85019663 -23.68851165 453.85824081 -32.63373192 453.84851871 C-37.19612279 453.84397534 -41.75826814 453.84586242 -46.32062531 453.86528015 C-50.50186354 453.88292183 -54.68267733 453.88190607 -58.86392014 453.86638286 C-60.37203696 453.86400832 -61.88018325 453.86832236 -63.38825507 453.88021151 C-76.21504956 453.97502502 -86.76771184 451.916589 -96.4375 442.9375 C-97.22125 442.091875 -98.005 441.24625 -98.8125 440.375 C-99.493125 439.653125 -100.17375 438.93125 -100.875 438.1875 C-105.90079913 430.89198513 -107.9340217 422.84631846 -107.94392776 414.07732296 C-107.94776891 412.79984532 -107.95161005 411.52236769 -107.9555676 410.20617861 C-107.9547874 408.79068619 -107.95390862 407.37519383 -107.95294189 405.95970154 C-107.95552624 404.45426087 -107.95853959 402.94882088 -107.9619453 401.44338185 C-107.9700106 397.3048665 -107.97180461 393.1663685 -107.97254276 389.02784622 C-107.97439417 384.56480881 -107.98194201 380.10178038 -107.98867798 375.63874817 C-108.00225913 365.87822046 -108.00828586 356.11769687 -108.01268864 346.35716128 C-108.01545178 340.26119382 -108.0196893 334.16522794 -108.02419281 328.06926155 C-108.03638586 311.18773085 -108.04668467 294.30620142 -108.0500679 277.4246664 C-108.05028747 276.34421504 -108.05050703 275.26376367 -108.05073325 274.15057135 C-108.05095153 273.0675464 -108.05116981 271.98452145 -108.0513947 270.86867756 C-108.05183817 268.67408907 -108.05228473 266.47950059 -108.05273438 264.28491211 C-108.0529558 263.19632234 -108.05317723 262.10773256 -108.05340537 260.98615522 C-108.05735193 243.35387659 -108.07480146 225.72163933 -108.0980939 208.08937668 C-108.12182083 189.98184009 -108.13427039 171.87432424 -108.13543582 153.76677185 C-108.1363519 143.60203904 -108.14208713 133.43736009 -108.16025543 123.27264214 C-108.17567461 114.61551061 -108.1807662 105.95844961 -108.17251733 97.30130696 C-108.16861709 92.88667654 -108.16950973 88.47218807 -108.18357468 84.05757523 C-108.19635132 80.01018913 -108.19508325 75.96305109 -108.18298396 71.91566516 C-108.18103345 70.45733112 -108.18407536 68.99897928 -108.19282833 67.54067021 C-108.2726907 53.32644307 -106.5451941 41.99812554 -96.87890625 31.21875 C-86.72475571 21.23228268 -75.74352658 19.85039411 -62.13554382 19.89755249 C-58.92321453 19.93602202 -55.71191381 19.99858492 -52.5 20.0625 C-50.29494729 20.08762557 -48.08986686 20.11043118 -45.88476562 20.13085938 C-40.52673073 20.18548887 -35.16974749 20.26877327 -29.8125 20.375 C-29.82474609 19.10285645 -29.83699219 17.83071289 -29.84960938 16.52001953 C-29.89692476 11.60482241 -28.75436049 8.33833983 -25.8125 4.375 C-18.31746538 -2.70535032 -9.59400755 -4.90220123 0 0 Z " fill="#FDFEFD" transform="translate(286.8125,174.625)"/>
<path d="M0 0 C4.6635389 3.47479369 8.21566217 7.50261819 9.1875 13.375 C9.1875 15.685 9.1875 17.995 9.1875 20.375 C37.2375 20.375 65.2875 20.375 94.1875 20.375 C94.1875 17.735 94.1875 15.095 94.1875 12.375 C95.97539323 6.27512899 99.01816248 2.83967375 104.1875 -0.625 C109.09822981 -2.87575116 113.95770757 -3.67233075 119.19921875 -1.97265625 C124.35576578 0.31586843 128.15850874 3.59569199 131.1875 8.375 C132.74509722 12.43028271 132.1875 15.75601325 132.1875 20.375 C160.2375 20.375 188.2875 20.375 217.1875 20.375 C217.1875 18.065 217.1875 15.755 217.1875 13.375 C218.23536251 7.69658318 220.82368631 4.04626484 225.375 0.56640625 C230.45862618 -2.77520148 234.8518327 -2.93249057 240.7265625 -2.15625 C246.96424551 -0.80970256 250.73147774 2.47184107 254.2421875 7.69140625 C256.62726901 11.93921671 256.2649326 15.65161168 256.1875 20.375 C256.74745163 20.36389694 257.30740326 20.35279388 257.88432312 20.34135437 C263.77403621 20.22973125 269.66344335 20.15491187 275.55395508 20.1003418 C277.74483468 20.07537772 279.93563256 20.04139407 282.1262207 19.99780273 C297.23843691 19.70486354 309.39456735 19.58532061 321.625 29.5625 C328.710565 36.48676759 333.6539639 44.54763648 334.439349 54.59777093 C334.44021577 55.7100845 334.44108255 56.82239808 334.44197559 57.96841812 C334.44780779 59.26094474 334.45363998 60.55347136 334.45964891 61.88516545 C334.45601623 63.30725353 334.45219188 64.72934112 334.44819641 66.15142822 C334.45121849 67.67168323 334.45510825 69.19193672 334.45978898 70.71218753 C334.47007074 74.88234233 334.46788669 79.05241118 334.46360838 83.22257304 C334.46114145 87.72305271 334.470155 92.22351168 334.47764587 96.72398376 C334.49039642 105.53863144 334.49218607 114.35324865 334.48984561 123.16790399 C334.48806246 130.33393194 334.48981204 137.49995064 334.49407005 144.66597748 C334.49466524 145.68596139 334.49526043 146.70594531 334.49587366 147.75683783 C334.49708541 149.82897705 334.49829955 151.90111627 334.49951603 153.97325549 C334.51039324 173.40749199 334.5082284 192.84171114 334.50213119 212.27594861 C334.49696358 230.04780876 334.50821305 247.81961406 334.52722941 265.59146336 C334.54661105 283.84483358 334.55486312 302.09817787 334.55110615 320.35155845 C334.54919439 330.59726754 334.55167917 340.84292998 334.56582069 351.08863068 C334.57773971 359.81235529 334.57913363 368.53600453 334.56703053 377.25973019 C334.56114512 381.70867597 334.56003301 386.15748394 334.57203293 390.60642052 C334.58290286 394.68390347 334.57977523 398.76113371 334.56577124 402.8386049 C334.56312734 404.30897184 334.5654812 405.77935865 334.57350711 407.24970606 C334.63771358 419.89616637 333.16658394 431.16595373 325.1875 441.375 C316.82484918 449.73765082 306.38289747 453.49089757 294.6996212 453.50922108 C292.71977858 453.51590784 292.71977858 453.51590784 290.69993913 453.52272969 C289.23659475 453.5226404 287.77325037 453.52245056 286.30990601 453.52217102 C284.75425488 453.5254713 283.19860461 453.52919721 281.64295542 453.5333125 C277.36569272 453.54332187 273.08844405 453.54704758 268.81117129 453.54970181 C264.19886604 453.55360797 259.58657186 453.56318604 254.97427368 453.57191467 C243.83494255 453.5916694 232.69561052 453.60174366 221.55626625 453.61064246 C216.30972321 453.61502665 211.06318119 453.62039309 205.81663895 453.62563133 C188.37494046 453.64264199 170.9332426 453.65713631 153.49153709 453.66438007 C148.9662005 453.66628994 144.44086392 453.66821028 139.91552734 453.67016602 C138.79078788 453.67064976 137.66604842 453.6711335 136.50722595 453.6716319 C118.28580553 453.67993282 100.06445074 453.70527155 81.84305899 453.73774669 C63.13323094 453.7708204 44.42343625 453.78882908 25.71357882 453.79202431 C15.20959885 453.79418903 4.70571462 453.80293219 -5.79823685 453.82848549 C-14.74343375 453.85019663 -23.68851165 453.85824081 -32.63373192 453.84851871 C-37.19612279 453.84397534 -41.75826814 453.84586242 -46.32062531 453.86528015 C-50.50186354 453.88292183 -54.68267733 453.88190607 -58.86392014 453.86638286 C-60.37203696 453.86400832 -61.88018325 453.86832236 -63.38825507 453.88021151 C-76.21504956 453.97502502 -86.76771184 451.916589 -96.4375 442.9375 C-97.22125 442.091875 -98.005 441.24625 -98.8125 440.375 C-99.493125 439.653125 -100.17375 438.93125 -100.875 438.1875 C-105.90079913 430.89198513 -107.9340217 422.84631846 -107.94392776 414.07732296 C-107.94776891 412.79984532 -107.95161005 411.52236769 -107.9555676 410.20617861 C-107.9547874 408.79068619 -107.95390862 407.37519383 -107.95294189 405.95970154 C-107.95552624 404.45426087 -107.95853959 402.94882088 -107.9619453 401.44338185 C-107.9700106 397.3048665 -107.97180461 393.1663685 -107.97254276 389.02784622 C-107.97439417 384.56480881 -107.98194201 380.10178038 -107.98867798 375.63874817 C-108.00225913 365.87822046 -108.00828586 356.11769687 -108.01268864 346.35716128 C-108.01545178 340.26119382 -108.0196893 334.16522794 -108.02419281 328.06926155 C-108.03638586 311.18773085 -108.04668467 294.30620142 -108.0500679 277.4246664 C-108.05028747 276.34421504 -108.05050703 275.26376367 -108.05073325 274.15057135 C-108.05095153 273.0675464 -108.05116981 271.98452145 -108.0513947 270.86867756 C-108.05183817 268.67408907 -108.05228473 266.47950059 -108.05273438 264.28491211 C-108.0529558 263.19632234 -108.05317723 262.10773256 -108.05340537 260.98615522 C-108.05735193 243.35387659 -108.07480146 225.72163933 -108.0980939 208.08937668 C-108.12182083 189.98184009 -108.13427039 171.87432424 -108.13543582 153.76677185 C-108.1363519 143.60203904 -108.14208713 133.43736009 -108.16025543 123.27264214 C-108.17567461 114.61551061 -108.1807662 105.95844961 -108.17251733 97.30130696 C-108.16861709 92.88667654 -108.16950973 88.47218807 -108.18357468 84.05757523 C-108.19635132 80.01018913 -108.19508325 75.96305109 -108.18298396 71.91566516 C-108.18103345 70.45733112 -108.18407536 68.99897928 -108.19282833 67.54067021 C-108.2726907 53.32644307 -106.5451941 41.99812554 -96.87890625 31.21875 C-86.72475571 21.23228268 -75.74352658 19.85039411 -62.13554382 19.89755249 C-58.92321453 19.93602202 -55.71191381 19.99858492 -52.5 20.0625 C-50.29494729 20.08762557 -48.08986686 20.11043118 -45.88476562 20.13085938 C-40.52673073 20.18548887 -35.16974749 20.26877327 -29.8125 20.375 C-29.82474609 19.10285645 -29.83699219 17.83071289 -29.84960938 16.52001953 C-29.89692476 11.60482241 -28.75436049 8.33833983 -25.8125 4.375 C-18.31746538 -2.70535032 -9.59400755 -4.90220123 0 0 Z M-98.8125 132.375 C-98.895 179.85375 -98.9775 227.3325 -99.0625 276.25 C-99.09891602 291.24679199 -99.13533203 306.24358398 -99.17285156 321.69482422 C-99.18622851 335.12672241 -99.18622851 335.12672241 -99.1942749 348.55862427 C-99.19800457 354.54574872 -99.21267513 360.53272381 -99.23480225 366.51980591 C-99.26029316 373.42728653 -99.2718369 380.33462393 -99.2662798 387.24215192 C-99.2638737 390.77446696 -99.26764511 394.30646206 -99.28936052 397.83871818 C-99.30927161 401.62637127 -99.30445482 405.41322557 -99.29351807 409.20089722 C-99.30516872 410.2959363 -99.31681938 411.39097538 -99.32882309 412.51919746 C-99.26327604 420.9717932 -97.31959425 427.54062056 -92.6875 434.625 C-85.75824167 441.25298623 -78.97374094 444.49601214 -69.45769978 444.50642776 C-67.48421872 444.51218948 -67.48421872 444.51218948 -65.47086936 444.5180676 C-64.0071349 444.51728735 -62.54340049 444.51640856 -61.07966614 444.51544189 C-59.52757766 444.5180254 -57.97548985 444.52103852 -56.42340297 444.5244453 C-52.15141922 444.5325203 -47.87945228 444.53430515 -43.60746181 444.53504276 C-39.00267706 444.53689246 -34.39790104 444.54443939 -29.79312134 444.55117798 C-19.72076228 444.56476556 -9.6484072 444.57078673 0.42395949 444.57518864 C6.7123668 444.57795044 13.00077258 444.58218769 19.28917885 444.58669281 C36.6973864 444.59888622 54.10559271 444.60918527 71.51380444 444.6125679 C72.62818934 444.61278747 73.74257423 444.61300703 74.89072837 444.61323325 C76.56632416 444.61356067 76.56632416 444.61356067 78.27577037 444.6138947 C80.53939704 444.61433817 82.80302372 444.61478473 85.06665039 444.61523438 C86.18948936 444.6154558 87.31232833 444.61567723 88.46919272 444.61590537 C106.66291555 444.61985332 124.85659833 444.63730693 143.05030569 444.6605939 C161.72619232 444.68430522 180.40205886 444.69676966 199.07796079 444.69793582 C209.56510525 444.69885272 220.05219753 444.70460889 230.53932762 444.72275543 C239.46958816 444.73815346 248.39978039 444.74327864 257.33005168 444.73501733 C261.88607042 444.73110973 266.44195159 444.73204579 270.99795341 444.74607468 C275.17104889 444.75880694 279.34390334 444.75762202 283.51699845 444.74548396 C285.02443376 444.74352579 286.53188611 444.74661097 288.03929748 444.75532833 C299.36183107 444.81664626 308.20889289 443.8412506 317.171875 436.4765625 C322.69858366 430.71421897 325.31397199 423.2605693 325.31054783 415.38500595 C325.3125387 414.37350731 325.31452957 413.36200867 325.31658077 412.31985855 C325.31366811 411.21123333 325.31075544 410.10260811 325.30775452 408.96038818 C325.30861053 407.7837561 325.30946655 406.60712402 325.31034851 405.39483643 C325.31171726 402.12156471 325.30857498 398.84833238 325.30357273 395.57506531 C325.2992113 391.99381122 325.300667 388.41255867 325.30139065 384.83130264 C325.30192269 377.87698866 325.29730162 370.92268756 325.29088932 363.96837689 C325.28369518 355.92569399 325.28289489 347.88301886 325.28210449 339.84033203 C325.27685209 318.60188597 325.262891 297.36344279 325.25 276.125 C325.229375 228.6875 325.20875 181.25 325.1875 132.375 C185.2675 132.375 45.3475 132.375 -98.8125 132.375 Z " fill="#058952" transform="translate(286.8125,174.625)"/>
<path d="M0 0 C0.83491974 -0.01606293 1.66983948 -0.03212585 2.53005981 -0.04867554 C6.36524603 -0.09326626 10.20025917 -0.13422668 14.03564453 -0.15722656 C16.05301485 -0.17374115 18.07032775 -0.20097135 20.08740234 -0.23925781 C23.00372523 -0.29430987 25.9186751 -0.31594763 28.83544922 -0.33056641 C29.72845734 -0.35323578 30.62146545 -0.37590515 31.54153442 -0.39926147 C37.88174852 -0.37809826 42.10176858 1.04427989 46.95263672 5.19287109 C50.88250743 9.55750501 50.38798925 14.51593314 50.35107422 20.09521484 C50.3539444 21.05053604 50.35681458 22.00585724 50.35977173 22.99012756 C50.3618093 25.00652663 50.35630097 27.0229456 50.34375 29.03930664 C50.32770987 32.11633809 50.34360023 35.19205255 50.36279297 38.26904297 C50.36081014 40.23193648 50.35696564 42.19482917 50.35107422 44.15771484 C50.35714691 45.07350815 50.3632196 45.98930145 50.36947632 46.93284607 C50.31292389 52.10173193 49.84625632 55.72772417 46.95263672 60.19287109 C43.02857172 63.82263122 40.00808932 65.28392001 34.69995117 65.41748047 C33.41765373 65.45125793 33.41765373 65.45125793 32.10945129 65.48571777 C28.19537628 65.55703943 24.28148328 65.61425594 20.36694336 65.65283203 C18.30778714 65.67941225 16.24876338 65.72030793 14.19018555 65.77587891 C11.21071954 65.85531219 8.23378992 65.88819047 5.25341797 65.91162109 C3.8858007 65.96110901 3.8858007 65.96110901 2.49055481 66.01159668 C-3.77540574 65.99217195 -6.93703619 64.40302606 -11.46418762 60.08947754 C-14.22301027 56.78447422 -15.293422 54.18513684 -15.33789062 49.88671875 C-15.35065033 49.04549469 -15.36341003 48.20427063 -15.3765564 47.33755493 C-15.37878204 46.43644989 -15.38100769 45.53534485 -15.38330078 44.60693359 C-15.38995758 43.67239349 -15.39661438 42.73785339 -15.4034729 41.7749939 C-15.41358876 39.79972296 -15.41829025 37.82441791 -15.41796875 35.84912109 C-15.42233769 32.83552381 -15.45865673 29.82339645 -15.49658203 26.81005859 C-15.50245135 24.88818859 -15.50641997 22.96631164 -15.50830078 21.04443359 C-15.52267181 20.14737701 -15.53704285 19.25032043 -15.55184937 18.32608032 C-15.51154301 12.77442362 -14.76000587 9.58980134 -11.04736328 5.19287109 C-7.31576503 1.90551073 -4.96050448 0.08675703 0 0 Z " fill="#058952" transform="translate(505.04736328125,429.80712890625)"/>
<path d="M0 0 C0.83814743 -0.01283524 1.67629486 -0.02567047 2.5398407 -0.03889465 C3.44813126 -0.04628159 4.35642181 -0.05366852 5.29223633 -0.0612793 C6.22723465 -0.06935104 7.16223297 -0.07742279 8.12556458 -0.08573914 C10.10859317 -0.09958625 12.09164566 -0.11030559 14.07470703 -0.11816406 C17.09494885 -0.1353314 20.11408309 -0.17920632 23.1340332 -0.22338867 C25.06175954 -0.23351967 26.98949517 -0.2420345 28.91723633 -0.2487793 C30.26449043 -0.27504143 30.26449043 -0.27504143 31.63896179 -0.30183411 C37.60516776 -0.28139334 41.12475867 0.55943934 45.93676758 4.17700195 C50.53887483 9.19697326 50.51250192 13.70694454 50.43286133 20.17700195 C50.43431656 21.1309082 50.43577179 22.08481445 50.43727112 23.06762695 C50.43561617 25.07807479 50.42410028 27.08853583 50.40332031 29.09887695 C50.3743607 32.16713562 50.38272136 35.23366523 50.39575195 38.30200195 C50.38951398 40.26034364 50.38112259 42.2186799 50.37036133 44.17700195 C50.37329697 45.0896582 50.3762326 46.00231445 50.3792572 46.94262695 C50.30333734 52.09661805 49.81635664 55.72362879 46.93676758 60.17700195 C42.99502863 63.82311048 39.98839217 65.28460315 34.65234375 65.35400391 C33.79102341 65.36683914 32.92970306 65.37967438 32.0422821 65.39289856 C31.114142 65.40028549 30.18600189 65.40767242 29.22973633 65.4152832 C27.79250969 65.42739082 27.79250969 65.42739082 26.32624817 65.43974304 C24.29792078 65.45357388 22.26957022 65.46430051 20.24121094 65.47216797 C17.14644057 65.48937864 14.05273921 65.53327364 10.95825195 65.57739258 C8.98625459 65.58752008 7.01424816 65.596036 5.04223633 65.6027832 C4.12016891 65.62029129 3.1981015 65.63779938 2.24809265 65.65583801 C-3.33594395 65.6370772 -6.78256713 65.11840706 -11.06323242 61.17700195 C-15.18513521 55.64435315 -15.6474663 51.29368015 -15.55932617 44.5168457 C-15.5607814 43.60874649 -15.56223663 42.70064728 -15.56373596 41.76502991 C-15.56208348 39.85471369 -15.55059558 37.94438326 -15.52978516 36.03417969 C-15.50078336 33.11962072 -15.50919952 30.20687826 -15.5222168 27.29223633 C-15.5159798 25.42959733 -15.50758917 23.56696404 -15.49682617 21.7043457 C-15.49976181 20.83857407 -15.50269745 19.97280243 -15.50572205 19.08079529 C-15.41682059 13.34878668 -14.60169533 8.89632227 -10.52807617 4.5324707 C-4.68264295 0.06243354 -4.68264295 0.06243354 0 0 Z " fill="#058953" transform="translate(505.063232421875,343.822998046875)"/>
<path d="M0 0 C0.83491974 -0.01606293 1.66983948 -0.03212585 2.53005981 -0.04867554 C6.36524603 -0.09326626 10.20025917 -0.13422668 14.03564453 -0.15722656 C16.05301485 -0.17374115 18.07032775 -0.20097135 20.08740234 -0.23925781 C23.00372523 -0.29430987 25.9186751 -0.31594763 28.83544922 -0.33056641 C29.72845734 -0.35323578 30.62146545 -0.37590515 31.54153442 -0.39926147 C37.88278214 -0.37809481 42.10027791 1.04520848 46.95263672 5.19287109 C50.92480531 9.58186916 50.40379335 14.6921257 50.38623047 20.31396484 C50.39147232 21.29148209 50.39671417 22.26899933 50.40211487 23.27613831 C50.40852668 25.33960014 50.40720898 27.40309856 50.39868164 29.46655273 C50.39017492 32.61622501 50.41894013 35.76408111 50.45068359 38.91357422 C50.45229588 40.92203722 50.45171754 42.93050342 50.44873047 44.93896484 C50.45996445 45.87663193 50.47119843 46.81429901 50.48277283 47.78038025 C50.42134119 53.57154034 49.72931634 56.74198845 45.95263672 61.19287109 C42.42917489 64.28924664 39.40984334 65.30794369 34.76000977 65.36987305 C33.91871017 65.38270828 33.07741058 65.39554352 32.21061707 65.4087677 C31.30435074 65.41615463 30.39808441 65.42354156 29.46435547 65.43115234 C28.52840042 65.43922409 27.59244537 65.44729584 26.62812805 65.45561218 C24.64687955 65.46944211 22.66560732 65.48016915 20.68432617 65.48803711 C17.66197327 65.50524675 14.64071533 65.54914221 11.61865234 65.59326172 C9.69222808 65.60338935 7.76579454 65.61190523 5.83935547 65.61865234 C4.93916183 65.63616043 4.0389682 65.65366852 3.11149597 65.67170715 C-2.45872131 65.65255237 -5.63173691 64.91472913 -10.04736328 61.19287109 C-13.93904226 56.98565057 -15.14283186 53.81495834 -15.22436523 48.17797852 C-15.23720047 47.4000444 -15.25003571 46.62211029 -15.26325989 45.82060242 C-15.27064682 44.98825577 -15.27803375 44.15590912 -15.28564453 43.29833984 C-15.29371628 42.43275955 -15.30178802 41.56717926 -15.31010437 40.67536926 C-15.32391553 38.84553005 -15.33465092 37.01566539 -15.3425293 35.18579102 C-15.35405258 33.32080501 -15.37450993 31.45585206 -15.40405273 29.59106445 C-15.44684247 26.88909611 -15.46291325 24.18810545 -15.47314453 21.48583984 C-15.49065262 20.65956589 -15.50816071 19.83329193 -15.52619934 18.98197937 C-15.5048149 13.2265475 -14.34928021 9.93171589 -11.04736328 5.19287109 C-7.36317921 1.8595617 -4.94493089 0.08648465 0 0 Z " fill="#058953" transform="translate(423.04736328125,515.80712890625)"/>
<path d="M0 0 C0.83491974 -0.01606293 1.66983948 -0.03212585 2.53005981 -0.04867554 C6.36524603 -0.09326626 10.20025917 -0.13422668 14.03564453 -0.15722656 C16.05301485 -0.17374115 18.07032775 -0.20097135 20.08740234 -0.23925781 C23.00372523 -0.29430987 25.9186751 -0.31594763 28.83544922 -0.33056641 C29.72845734 -0.35323578 30.62146545 -0.37590515 31.54153442 -0.39926147 C37.88278214 -0.37809481 42.10027791 1.04520848 46.95263672 5.19287109 C50.92480531 9.58186916 50.40379335 14.6921257 50.38623047 20.31396484 C50.39147232 21.29148209 50.39671417 22.26899933 50.40211487 23.27613831 C50.40852668 25.33960014 50.40720898 27.40309856 50.39868164 29.46655273 C50.39017492 32.61622501 50.41894013 35.76408111 50.45068359 38.91357422 C50.45229588 40.92203722 50.45171754 42.93050342 50.44873047 44.93896484 C50.45996445 45.87663193 50.47119843 46.81429901 50.48277283 47.78038025 C50.42134119 53.57154034 49.72931634 56.74198845 45.95263672 61.19287109 C42.42917489 64.28924664 39.40984334 65.30794369 34.76000977 65.36987305 C33.91871017 65.38270828 33.07741058 65.39554352 32.21061707 65.4087677 C31.30435074 65.41615463 30.39808441 65.42354156 29.46435547 65.43115234 C28.52840042 65.43922409 27.59244537 65.44729584 26.62812805 65.45561218 C24.64687955 65.46944211 22.66560732 65.48016915 20.68432617 65.48803711 C17.66197327 65.50524675 14.64071533 65.54914221 11.61865234 65.59326172 C9.69222808 65.60338935 7.76579454 65.61190523 5.83935547 65.61865234 C4.93916183 65.63616043 4.0389682 65.65366852 3.11149597 65.67170715 C-2.45872131 65.65255237 -5.63173691 64.91472913 -10.04736328 61.19287109 C-13.93904226 56.98565057 -15.14283186 53.81495834 -15.22436523 48.17797852 C-15.23720047 47.4000444 -15.25003571 46.62211029 -15.26325989 45.82060242 C-15.27064682 44.98825577 -15.27803375 44.15590912 -15.28564453 43.29833984 C-15.29371628 42.43275955 -15.30178802 41.56717926 -15.31010437 40.67536926 C-15.32391553 38.84553005 -15.33465092 37.01566539 -15.3425293 35.18579102 C-15.35405258 33.32080501 -15.37450993 31.45585206 -15.40405273 29.59106445 C-15.44684247 26.88909611 -15.46291325 24.18810545 -15.47314453 21.48583984 C-15.49065262 20.65956589 -15.50816071 19.83329193 -15.52619934 18.98197937 C-15.5048149 13.2265475 -14.34928021 9.93171589 -11.04736328 5.19287109 C-7.36317921 1.8595617 -4.94493089 0.08648465 0 0 Z " fill="#058953" transform="translate(423.04736328125,429.80712890625)"/>
<path d="M0 0 C1.35859131 -0.00574036 1.35859131 -0.00574036 2.74462891 -0.01159668 C4.65072752 -0.01430654 6.55686391 -0.00701051 8.46289062 0.00976562 C11.36673541 0.03118903 14.26810641 0.00993288 17.171875 -0.015625 C19.03125542 -0.01298156 20.8906343 -0.00785624 22.75 0 C24.04091553 -0.01214539 24.04091553 -0.01214539 25.35791016 -0.02453613 C31.18390759 0.06529329 34.57914185 1.1833721 39.375 4.53125 C44.33343901 9.88114472 44.54239962 14.28785508 44.578125 21.328125 C44.58382507 22.19512024 44.58952515 23.06211548 44.59539795 23.9553833 C44.60484373 25.79120668 44.61138026 27.62704699 44.61523438 29.46289062 C44.62491534 32.25681605 44.65593218 35.04999796 44.6875 37.84375 C44.69403292 39.63020398 44.69928226 41.41666321 44.703125 43.203125 C44.7154718 44.03253601 44.7278186 44.86194702 44.74053955 45.7164917 C44.71805184 51.64072173 43.87941863 56.62247211 39.875 61.2734375 C35.91439298 64.26452092 33.11486922 65.64255792 28.18237305 65.70825195 C27.34107346 65.72108719 26.49977386 65.73392242 25.63298035 65.74714661 C24.72671402 65.75453354 23.82044769 65.76192047 22.88671875 65.76953125 C21.9507637 65.777603 21.01480865 65.78567474 20.05049133 65.79399109 C18.06924283 65.80782102 16.0879706 65.81854805 14.10668945 65.82641602 C11.08433655 65.84362566 8.06307861 65.88752112 5.04101562 65.93164062 C3.11459136 65.94176826 1.18815782 65.95028414 -0.73828125 65.95703125 C-1.63847488 65.97453934 -2.53866852 65.99204742 -3.46614075 66.01008606 C-9.01269671 65.99101264 -12.32305327 65.3695234 -16.625 61.53125 C-21.22622597 56.40044173 -21.21309274 51.87317012 -21.15625 45.3125 C-21.1600769 44.33639771 -21.16390381 43.36029541 -21.16784668 42.35461426 C-21.17056074 40.29710861 -21.16323509 38.23956816 -21.14648438 36.18212891 C-21.12506789 33.04120618 -21.14630364 29.90257073 -21.171875 26.76171875 C-21.16923163 24.75780747 -21.16410648 22.75389762 -21.15625 20.75 C-21.16434692 19.81546997 -21.17244385 18.88093994 -21.18078613 17.91809082 C-21.10076332 12.3259533 -20.5697475 8.81567519 -16.625 4.53125 C-11.10770054 0.42750183 -6.75682059 -0.06357054 0 0 Z " fill="#058953" transform="translate(347.625,515.46875)"/>
<path d="M0 0 C0.84137512 -0.01283524 1.68275024 -0.02567047 2.54962158 -0.03889465 C3.46104919 -0.04628159 4.37247681 -0.05366852 5.31152344 -0.0612793 C6.24889343 -0.06935104 7.18626343 -0.07742279 8.15203857 -0.08573914 C10.13926338 -0.09958491 12.12651203 -0.11030485 14.11376953 -0.11816406 C17.14499389 -0.13535117 20.17512033 -0.17922969 23.20605469 -0.22338867 C25.13703625 -0.23351788 27.06802709 -0.24203327 28.99902344 -0.2487793 C29.90235413 -0.26628738 30.80568481 -0.28379547 31.73638916 -0.30183411 C37.31306821 -0.28272958 40.5065994 0.43936287 44.92089844 4.17700195 C49.72892868 9.63476601 50.09958219 13.15229629 50.15917969 20.27856445 C50.16725143 21.18899506 50.17532318 22.09942566 50.18363953 23.03744507 C50.19748748 24.96919854 50.20820644 26.90097655 50.21606445 28.83276367 C50.23320932 31.76960652 50.2770804 34.7053036 50.32128906 37.6418457 C50.33142213 39.52074369 50.33993631 41.39965124 50.34667969 43.27856445 C50.36418777 44.14969879 50.38169586 45.02083313 50.3997345 45.91836548 C50.37908792 51.80281738 49.42847417 56.35553792 45.92089844 61.17700195 C40.95709977 65.85794988 36.21198659 65.77788729 29.73730469 65.7434082 C28.76357407 65.74960678 27.78984344 65.75580536 26.78660583 65.76219177 C24.73331702 65.76927559 22.6799706 65.76614114 20.62670898 65.75341797 C17.49647584 65.73955985 14.36923847 65.77363608 11.23925781 65.81176758 C9.23860604 65.81271895 7.23795056 65.81085899 5.23730469 65.8059082 C4.30793594 65.81916641 3.3785672 65.83242462 2.42103577 65.84608459 C-2.86470106 65.770893 -6.56076368 65.14646697 -10.68566895 61.69528198 C-15.51797018 56.43002095 -15.53553218 50.23609552 -15.51269531 43.5168457 C-15.51793716 42.60874649 -15.52317902 41.70064728 -15.52857971 40.76502991 C-15.53497394 38.85475686 -15.53369678 36.9444443 -15.52514648 35.03417969 C-15.51661615 32.11948495 -15.54546639 29.20673891 -15.57714844 26.29223633 C-15.57876024 24.4296067 -15.57818333 22.56697363 -15.57519531 20.7043457 C-15.58642929 19.83857407 -15.59766327 18.97280243 -15.60923767 18.08079529 C-15.54662183 12.62199123 -14.70444798 9.50940918 -11.07910156 5.17700195 C-7.32947852 1.87376261 -4.98408002 0.06618222 0 0 Z " fill="#048952" transform="translate(260.0791015625,515.822998046875)"/>
<path d="M0 0 C0.92933853 -0.0038269 1.85867706 -0.00765381 2.81617737 -0.01159668 C4.77533048 -0.0143102 6.73452016 -0.00698832 8.69360352 0.00976562 C11.67872653 0.03115913 14.66143633 0.00995761 17.64648438 -0.015625 C19.55599486 -0.01298115 21.46550384 -0.00785499 23.375 0 C24.26062119 -0.00809692 25.14624237 -0.01619385 26.05870056 -0.02453613 C31.95758679 0.06390284 35.40455425 1.12830561 40.25390625 4.53125 C45.19568285 9.86316686 45.43004491 14.27382082 45.4921875 21.29296875 C45.50025925 22.15759232 45.50833099 23.02221588 45.51664734 23.91304016 C45.53047707 25.74465945 45.5412042 27.57630439 45.54907227 29.40795898 C45.56057353 31.27294513 45.58099591 33.13789884 45.6105957 35.00268555 C45.65347117 37.70383983 45.66947055 40.40401551 45.6796875 43.10546875 C45.69719559 43.92971848 45.71470367 44.7539682 45.73274231 45.60319519 C45.71140786 51.36815905 44.48348297 55.71233965 41.25390625 60.53125 C37.39709911 64.19992021 34.34655597 65.63785937 29.0612793 65.70825195 C28.21997971 65.72108719 27.37868011 65.73392242 26.5118866 65.74714661 C25.60562027 65.75453354 24.69935394 65.76192047 23.765625 65.76953125 C22.82966995 65.777603 21.8937149 65.78567474 20.92939758 65.79399109 C18.94814908 65.80782102 16.96687685 65.81854805 14.9855957 65.82641602 C11.9632428 65.84362566 8.94198486 65.88752112 5.91992188 65.93164062 C3.99349761 65.94176826 2.06706407 65.95028414 0.140625 65.95703125 C-0.75956863 65.97453934 -1.65976227 65.99204742 -2.5872345 66.01008606 C-8.13379046 65.99101264 -11.44414702 65.3695234 -15.74609375 61.53125 C-20.34731972 56.40044173 -20.33418649 51.87317012 -20.27734375 45.3125 C-20.28117065 44.33639771 -20.28499756 43.36029541 -20.28894043 42.35461426 C-20.29165449 40.29710861 -20.28432884 38.23956816 -20.26757812 36.18212891 C-20.24616164 33.04120618 -20.26739739 29.90257073 -20.29296875 26.76171875 C-20.29032538 24.75780747 -20.28520023 22.75389762 -20.27734375 20.75 C-20.28544067 19.81546997 -20.2935376 18.88093994 -20.30187988 17.91809082 C-20.2216198 12.30937295 -19.63949249 8.87276303 -15.74609375 4.53125 C-10.70032107 0.0568993 -6.42833017 -0.05863794 0 0 Z " fill="#058953" transform="translate(346.74609375,429.46875)"/>
<path d="M0 0 C1.22223518 -0.02409439 1.22223518 -0.02409439 2.46916199 -0.04867554 C6.20013393 -0.09339012 9.93093162 -0.13420804 13.66210938 -0.15722656 C15.62414437 -0.17375374 17.58611996 -0.20100086 19.54785156 -0.23925781 C22.38809193 -0.29431515 25.22692319 -0.31594612 28.06762695 -0.33056641 C28.93562424 -0.35323578 29.80362152 -0.37590515 30.69792175 -0.39926147 C36.96539923 -0.37775548 41.13060326 1.11214513 45.9309082 5.19287109 C49.9030768 9.58186916 49.38206483 14.6921257 49.36450195 20.31396484 C49.3697438 21.29148209 49.37498566 22.26899933 49.38038635 23.27613831 C49.38679817 25.33960014 49.38548046 27.40309856 49.37695312 29.46655273 C49.36844641 32.61622501 49.39721161 35.76408111 49.42895508 38.91357422 C49.43056737 40.92203722 49.42998903 42.93050342 49.42700195 44.93896484 C49.43823593 45.87663193 49.44946991 46.81429901 49.46104431 47.78038025 C49.39961267 53.57154034 48.70758783 56.74198845 44.9309082 61.19287109 C41.39269809 64.30220726 38.34117348 65.30015386 33.67822266 65.41748047 C32.39592522 65.45125793 32.39592522 65.45125793 31.08772278 65.48571777 C27.17364776 65.55703943 23.25975476 65.61425594 19.34521484 65.65283203 C17.28605862 65.67941225 15.22703487 65.72030793 13.16845703 65.77587891 C10.18899103 65.85531219 7.21206141 65.88819047 4.23168945 65.91162109 C2.86407219 65.96110901 2.86407219 65.96110901 1.46882629 66.01159668 C-4.73552213 65.99236295 -8.11499159 64.49999181 -12.51847839 60.08912659 C-16.65368519 55.03215456 -16.38818128 49.32570313 -16.4050293 43.10302734 C-16.4150145 41.80890175 -16.4150145 41.80890175 -16.42520142 40.4886322 C-16.43528988 38.67074708 -16.44001962 36.8528252 -16.43969727 35.03491211 C-16.44407297 32.26727885 -16.48043867 29.50123862 -16.51831055 26.73388672 C-16.52417919 24.96110567 -16.52814827 23.18831711 -16.5300293 21.41552734 C-16.54440033 20.5955275 -16.55877136 19.77552765 -16.57357788 18.93067932 C-16.52846184 13.20481884 -15.34369663 9.91272821 -12.0690918 5.19287109 C-8.21377743 1.6196529 -5.23675313 0.09414736 0 0 Z " fill="#058953" transform="translate(424.069091796875,343.80712890625)"/>
<path d="M0 0 C0.84137512 -0.01283524 1.68275024 -0.02567047 2.54962158 -0.03889465 C3.46104919 -0.04628159 4.37247681 -0.05366852 5.31152344 -0.0612793 C6.24889343 -0.06935104 7.18626343 -0.07742279 8.15203857 -0.08573914 C10.13926338 -0.09958491 12.12651203 -0.11030485 14.11376953 -0.11816406 C17.14499389 -0.13535117 20.17512033 -0.17922969 23.20605469 -0.22338867 C25.13703625 -0.23351788 27.06802709 -0.24203327 28.99902344 -0.2487793 C29.90235413 -0.26628738 30.80568481 -0.28379547 31.73638916 -0.30183411 C37.31306821 -0.28272958 40.5065994 0.43936287 44.92089844 4.17700195 C49.72892868 9.63476601 50.09958219 13.15229629 50.15917969 20.27856445 C50.16725143 21.18899506 50.17532318 22.09942566 50.18363953 23.03744507 C50.19748748 24.96919854 50.20820644 26.90097655 50.21606445 28.83276367 C50.23320932 31.76960652 50.2770804 34.7053036 50.32128906 37.6418457 C50.33142213 39.52074369 50.33993631 41.39965124 50.34667969 43.27856445 C50.36418777 44.14969879 50.38169586 45.02083313 50.3997345 45.91836548 C50.37926189 51.75323367 49.53776358 56.46084733 45.92089844 61.17700195 C40.43210542 65.51127648 35.69706142 65.78091423 28.85839844 65.7434082 C27.90827881 65.74960678 26.95815918 65.75580536 25.97924805 65.76219177 C23.97901428 65.76926652 21.97872134 65.76615711 19.97851562 65.75341797 C16.92955615 65.73954136 13.88366227 65.7736711 10.83496094 65.81176758 C8.88443936 65.81271881 6.93391396 65.81085975 4.98339844 65.8059082 C4.07904053 65.81916641 3.17468262 65.83242462 2.24291992 65.84608459 C-2.98121634 65.76975514 -6.59807466 65.09347673 -10.67674255 61.69528198 C-15.52562802 56.44558064 -15.53551747 50.2317659 -15.51269531 43.5168457 C-15.51793716 42.60874649 -15.52317902 41.70064728 -15.52857971 40.76502991 C-15.53497394 38.85475686 -15.53369678 36.9444443 -15.52514648 35.03417969 C-15.51661615 32.11948495 -15.54546639 29.20673891 -15.57714844 26.29223633 C-15.57876024 24.4296067 -15.57818333 22.56697363 -15.57519531 20.7043457 C-15.58642929 19.83857407 -15.59766327 18.97280243 -15.60923767 18.08079529 C-15.54662183 12.62199123 -14.70444798 9.50940918 -11.07910156 5.17700195 C-7.32947852 1.87376261 -4.98408002 0.06618222 0 0 Z " fill="#048952" transform="translate(260.0791015625,429.822998046875)"/>
<path d="M0 0 C0.90335587 -0.00619858 1.80671173 -0.01239716 2.73744202 -0.01878357 C4.63932219 -0.02585643 6.5412646 -0.02275221 8.44311523 -0.01000977 C11.33629496 0.00385182 14.22623363 -0.03024628 17.11914062 -0.06835938 C18.9752612 -0.06931078 20.83138578 -0.06745057 22.6875 -0.0625 C23.54294907 -0.07575821 24.39839813 -0.08901642 25.2797699 -0.10267639 C31.44016475 -0.00825127 35.76771392 1.42278856 40.41015625 5.56640625 C44.6802929 10.45752278 44.99250166 15.4822394 44.90625 21.75390625 C44.90770523 22.6152417 44.90916046 23.47657715 44.91065979 24.36401367 C44.90900781 26.1759786 44.89752553 27.98795859 44.87670898 29.79980469 C44.8477387 32.55855484 44.85611797 35.31538149 44.86914062 38.07421875 C44.86290245 39.84245717 44.85451088 41.61068957 44.84375 43.37890625 C44.84668564 44.19576904 44.84962128 45.01263184 44.85264587 45.85424805 C44.7571556 51.70906398 43.86362415 56.71680552 39.91015625 61.30859375 C35.94954923 64.29967717 33.15002547 65.67771417 28.2175293 65.7434082 C27.37622971 65.75624344 26.53493011 65.76907867 25.6681366 65.78230286 C24.76187027 65.78968979 23.85560394 65.79707672 22.921875 65.8046875 C21.98591995 65.81275925 21.0499649 65.82083099 20.08564758 65.82914734 C18.10439908 65.84297727 16.12312685 65.8537043 14.1418457 65.86157227 C11.1194928 65.87878191 8.09823486 65.92267737 5.07617188 65.96679688 C3.14974761 65.97692451 1.22331407 65.98544039 -0.703125 65.9921875 C-1.60331863 66.00969559 -2.50351227 66.02720367 -3.4309845 66.04524231 C-8.97754046 66.02616889 -12.28789702 65.40467965 -16.58984375 61.56640625 C-21.19106972 56.43559798 -21.17793649 51.90832637 -21.12109375 45.34765625 C-21.12492065 44.37155396 -21.12874756 43.39545166 -21.13269043 42.38977051 C-21.13540449 40.33226486 -21.12807884 38.27472441 -21.11132812 36.21728516 C-21.08991164 33.07636243 -21.11114739 29.93772698 -21.13671875 26.796875 C-21.13407538 24.79296372 -21.12895023 22.78905387 -21.12109375 20.78515625 C-21.12919067 19.85062622 -21.1372876 18.91609619 -21.14562988 17.95324707 C-21.06560707 12.36110955 -20.53459125 8.85083144 -16.58984375 4.56640625 C-11.08796664 0.48082017 -6.73662949 -0.03896658 0 0 Z " fill="#058953" transform="translate(347.58984375,343.43359375)"/>
<path d="M0 0 C2.58297781 2.18991597 4.48415844 3.96831688 6 7 C6.10632177 8.85230226 6.14881706 10.7084104 6.16113281 12.5637207 C6.17074036 13.72865555 6.1803479 14.89359039 6.19024658 16.09382629 C6.19449646 17.35837143 6.19874634 18.62291656 6.203125 19.92578125 C6.20882507 21.22065964 6.21452515 22.51553802 6.22039795 23.84965515 C6.23090798 26.59435418 6.23675028 29.33902392 6.24023438 32.08374023 C6.24571208 35.59434158 6.269724 39.10455369 6.29820633 42.61503315 C6.32135754 45.96860834 6.32328434 49.32213028 6.328125 52.67578125 C6.3404718 53.93425369 6.3528186 55.19272614 6.36553955 56.48933411 C6.36253845 57.66372543 6.35953735 58.83811676 6.35644531 60.0480957 C6.36009094 61.0790889 6.36373657 62.11008209 6.36749268 63.1723175 C5.93700154 66.48474338 4.97631725 68.32608978 3 71 C-1.00254616 73.66836411 -4.29313299 73.8340238 -9 73 C-11.75569447 70.81840855 -13.43588747 69.12822506 -15 66 C-15.11139559 64.1531316 -15.15924324 62.30228802 -15.17700195 60.45214844 C-15.19625481 58.70958771 -15.19625481 58.70958771 -15.21589661 56.93182373 C-15.22328354 55.67041565 -15.23067047 54.40900757 -15.23828125 53.109375 C-15.246353 51.81686829 -15.25442474 50.52436157 -15.26274109 49.19268799 C-15.27776998 46.45219046 -15.28760623 43.71171886 -15.29516602 40.97119141 C-15.30621224 37.46953903 -15.34058979 33.96852535 -15.38033772 30.46709824 C-15.41285722 27.11871651 -15.4172878 23.77040242 -15.42578125 20.421875 C-15.44328934 19.16856384 -15.46079742 17.91525269 -15.47883606 16.6239624 C-15.4518764 5.80242196 -15.4518764 5.80242196 -11 1 C-7.44985064 -1.8156357 -4.22365209 -1.11148739 0 0 Z " fill="#F6FAF9" transform="translate(528,182)"/>
<path d="M0 0 C2.58297781 2.18991597 4.48415844 3.96831688 6 7 C6.11139559 8.8468684 6.15924324 10.69771198 6.17700195 12.54785156 C6.18983719 13.70955872 6.20267242 14.87126587 6.21589661 16.06817627 C6.22328354 17.32958435 6.23067047 18.59099243 6.23828125 19.890625 C6.246353 21.18313171 6.25442474 22.47563843 6.26274109 23.80731201 C6.27776998 26.54780954 6.28760623 29.28828114 6.29516602 32.02880859 C6.30621224 35.53046097 6.34058979 39.03147465 6.38033772 42.53290176 C6.41285722 45.88128349 6.4172878 49.22959758 6.42578125 52.578125 C6.44328934 53.83143616 6.46079742 55.08474731 6.47883606 56.3760376 C6.45166451 67.28263405 6.45166451 67.28263405 2 72 C-1.47263273 73.73631636 -5.21193013 73.60190402 -9 73 C-11.75569447 70.81840855 -13.43588747 69.12822506 -15 66 C-15.11139559 64.1531316 -15.15924324 62.30228802 -15.17700195 60.45214844 C-15.19625481 58.70958771 -15.19625481 58.70958771 -15.21589661 56.93182373 C-15.22328354 55.67041565 -15.23067047 54.40900757 -15.23828125 53.109375 C-15.246353 51.81686829 -15.25442474 50.52436157 -15.26274109 49.19268799 C-15.27776998 46.45219046 -15.28760623 43.71171886 -15.29516602 40.97119141 C-15.30621224 37.46953903 -15.34058979 33.96852535 -15.38033772 30.46709824 C-15.41285722 27.11871651 -15.4172878 23.77040242 -15.42578125 20.421875 C-15.44328934 19.16856384 -15.46079742 17.91525269 -15.47883606 16.6239624 C-15.4518764 5.80242196 -15.4518764 5.80242196 -11 1 C-7.44985064 -1.8156357 -4.22365209 -1.11148739 0 0 Z " fill="#F6FAF9" transform="translate(281,182)"/>
<path d="M0 0 C2.92937654 1.81310142 5.43647949 3.87295899 7 7 C7.10642856 8.8829321 7.14882656 10.76962021 7.16113281 12.65551758 C7.17074036 13.84047318 7.1803479 15.02542877 7.19024658 16.24629211 C7.19449646 17.53271103 7.19874634 18.81912994 7.203125 20.14453125 C7.20882507 21.46160568 7.21452515 22.77868011 7.22039795 24.13566589 C7.23090825 26.9274433 7.23675038 29.71919192 7.24023438 32.51098633 C7.24571235 36.08211892 7.26972477 39.65286893 7.29820633 43.22388172 C7.32135532 46.6349242 7.32328419 50.04591428 7.328125 53.45703125 C7.3404718 54.73737747 7.3528186 56.01772369 7.36553955 57.33686829 C7.36253845 58.53128036 7.35953735 59.72569244 7.35644531 60.95629883 C7.36009094 62.00505692 7.36373657 63.053815 7.36749268 64.13435364 C6.93972212 67.47003681 5.99286832 69.31056274 4 72 C0.31106884 74.45928744 -2.71641421 74.69305579 -7 74 C-10.44312714 71.8755173 -11.71617547 70.85147359 -13 67 C-13.11345734 65.08455531 -13.16917127 63.16548176 -13.19287109 61.24682617 C-13.21696548 59.47434761 -13.21696548 59.47434761 -13.24154663 57.6660614 C-13.28600332 52.26687151 -13.32749036 46.86782632 -13.35009766 41.46850586 C-13.36343297 38.61954613 -13.39128036 35.77130337 -13.43212891 32.92260742 C-13.49099556 28.81677203 -13.50876457 24.71170419 -13.5234375 20.60546875 C-13.54610687 19.33342087 -13.56877625 18.06137299 -13.59213257 16.7507782 C-13.56856797 6.9024838 -13.56856797 6.9024838 -10.59228516 3.2121582 C-6.88132858 0.04536808 -4.88418376 -0.56355966 0 0 Z " fill="#FDFEFE" transform="translate(403,181)"/>
</svg>
