<?xml version="1.0" encoding="UTF-8"?>
<svg version="1.1" xmlns="http://www.w3.org/2000/svg" width="512" height="512">
<path d="M0 0 C2.80191574 2.54526631 5.47182863 5.20951375 8.13720703 7.896698 C8.91583383 8.67361594 9.69446062 9.45053389 10.49668217 10.2509948 C13.08849466 12.83952918 15.67312273 15.43511667 18.2578125 18.03076172 C20.12060954 19.89412323 21.98379972 21.75708371 23.8474884 23.61955261 C27.85089108 27.62190981 31.85063405 31.62789395 35.84786987 35.63640976 C41.62710779 41.43194568 47.41190215 47.22190943 53.19803989 53.01055576 C62.58695588 62.40384211 71.97140273 71.80158017 81.35302734 81.20214844 C90.4629796 90.33047655 99.57504333 99.45668843 108.68994141 108.58007812 C109.25238178 109.14304395 109.81482216 109.70600977 110.39430618 110.28603517 C113.2160961 113.11043527 116.03792743 115.934794 118.85977936 118.75913215 C142.24627779 142.16634257 165.62551775 165.5807901 189 189 C192.01996131 187.64675389 194.10955333 186.13788415 196.43993855 183.79777718 C197.10543101 183.13441671 197.77092347 182.47105625 198.45658237 181.78759396 C199.17943634 181.05686795 199.90229031 180.32614193 200.64704895 179.57327271 C201.42140264 178.79851117 202.19575632 178.02374964 202.99357527 177.22551048 C205.59529138 174.62005454 208.18978522 172.00752225 210.78442383 169.39501953 C212.64510408 167.52886562 214.50618638 165.66312143 216.36781311 163.7979126 C220.38034872 159.77619058 224.38936737 155.75099032 228.39618874 151.72357559 C234.19549272 145.8947405 240.00174141 140.07286214 245.81000038 134.25295185 C255.24130686 124.80262825 264.66923787 115.34894582 274.09399414 105.89208984 C274.65811277 105.32605328 275.2222314 104.76001672 275.80344453 104.17682754 C282.09504965 97.86368262 288.38583866 91.54972542 294.67572021 85.23486328 C296.95543504 82.94611704 299.2351573 80.65737821 301.51489258 78.36865234 C302.07741302 77.80391024 302.63993347 77.23916814 303.21949998 76.65731265 C312.60351656 67.23655798 321.99336749 57.82164212 331.3878004 48.41127479 C337.18079113 42.60795638 342.96869601 36.79965475 348.75013246 30.98482512 C352.71368322 26.99911639 356.68261609 23.01882106 360.65580348 19.04271878 C362.94710673 16.74936939 365.23503157 14.45281843 367.51806641 12.15123367 C369.99582601 9.65407019 372.48268344 7.16632971 374.97200012 4.68069458 C375.68816193 3.95443001 376.40432374 3.22816544 377.14218742 2.47989285 C384.49131504 -4.81750122 390.68822757 -8.09640033 401.125 -8.375 C402.36507813 -8.42398438 403.60515625 -8.47296875 404.8828125 -8.5234375 C415.24412543 -7.8037963 422.48693538 -0.31018522 429.36132812 6.70947266 C430.87642767 8.251453 432.41653791 9.7647723 433.9609375 11.27734375 C440.3822061 17.67140883 445.6318184 23.68375594 446.56640625 33.02734375 C446.56511719 34.31769531 446.56382812 35.60804688 446.5625 36.9375 C446.58441406 38.22527344 446.60632813 39.51304687 446.62890625 40.83984375 C445.375355 53.28146735 435.22158588 61.45256436 426.86572266 69.68603516 C425.40729877 71.14140782 423.94998636 72.59789501 422.49369812 74.05540466 C418.55218499 77.99409114 414.59555469 81.91726645 410.6361165 85.83792162 C406.48611308 89.95281678 402.3507767 94.08239767 398.21395874 98.21054077 C390.37697843 106.02684493 382.52777132 113.83074451 374.67369115 121.62986219 C363.15638733 133.06757197 351.65647852 144.52275022 340.15787315 155.97925377 C338.45773732 157.67313039 336.75760114 159.36700666 335.0574646 161.06088257 C334.22709006 161.8882594 333.39671551 162.71563622 332.54117811 163.56808507 C327.61864025 168.4719948 322.69220487 173.37194622 317.76225686 178.26840615 C314.69145812 181.31893602 311.62261565 184.3714291 308.55410194 187.42425728 C307.13569 188.83443921 305.71637946 190.243718 304.29608345 191.65200233 C295.13886974 200.69939405 295.13886974 200.69939405 286.51698494 210.25102425 C283.65583323 213.5497287 280.54714185 216.60878369 277.46337891 219.69775391 C276.74529556 220.42080215 276.02721222 221.1438504 275.28736877 221.8888092 C272.93651153 224.25414351 270.58189261 226.61568259 268.2265625 228.9765625 C267.41677319 229.78917919 266.60698387 230.60179588 265.77265549 231.43903732 C261.49209443 235.7345277 257.20871228 240.0271804 252.92285156 244.31738281 C248.51257024 248.73315753 244.11165135 253.1581411 239.71285439 257.58535194 C236.3120011 261.00487666 232.90441191 264.41762868 229.49497604 267.82859421 C227.86989178 269.45669236 226.24729352 271.08727607 224.62730789 272.72044754 C222.35708338 275.00783599 220.07745919 277.28545152 217.79541016 279.56103516 C217.13745956 280.22820053 216.47950897 280.89536591 215.80162048 281.58274841 C208.50664373 288.81357592 200.94180208 294.81119044 190.37109375 295.0625 C178.43518725 294.53127746 171.24835589 287.83832612 163.14373779 279.63821411 C162.18342615 278.68108436 161.22224016 277.72483121 160.26026464 276.76937377 C157.63606638 274.15792914 155.02440374 271.53426109 152.41473103 268.90831161 C149.59172975 266.07209857 146.75715562 263.24749166 143.92404175 260.42138672 C138.38266861 254.89007495 132.85200205 249.34817647 127.32493207 243.80257644 C120.88479356 237.34162725 114.43417043 230.89118831 107.98313394 224.44112347 C96.47205155 212.93104143 84.97064646 201.41133774 73.47460938 189.88623047 C62.32495702 178.70839855 51.16832017 167.53760009 40.00390625 156.37451172 C38.97221908 155.34294442 38.97221908 155.34294442 37.91968974 154.29053737 C37.23307456 153.60400289 36.54645937 152.91746841 35.83903766 152.21012986 C23.11964218 139.49211489 10.40683973 126.76752764 -2.30291106 114.03987471 C-6.79409956 109.54265972 -11.28723344 105.04739395 -15.78098297 100.55273819 C-21.25792612 95.0744292 -26.73105904 89.59234498 -32.19950345 84.10555209 C-34.98853493 81.30730228 -37.77909566 78.5106264 -40.57400131 75.71824265 C-43.13428982 73.16015233 -45.68988279 70.59746511 -48.24186143 68.03108548 C-49.5993994 66.66823086 -50.96180049 65.31022567 -52.3243897 63.95242131 C-60.54417251 55.66740151 -66.22140151 48.90236218 -66.4375 36.75 C-66.47746094 35.52796875 -66.51742187 34.3059375 -66.55859375 33.046875 C-65.72363154 22.69437599 -58.27665899 15.50669492 -51.2355957 8.63867188 C-49.68448014 7.12204729 -48.15901193 5.58264023 -46.63476562 4.0390625 C-32.1689018 -10.40381895 -16.43589782 -13.35908148 0 0 Z " fill="#038951" transform="translate(66,113)"/>
</svg>
