<?xml version="1.0" encoding="UTF-8"?>
<svg version="1.1" xmlns="http://www.w3.org/2000/svg" width="800" height="800">
<path d="M0 0 C264 0 528 0 800 0 C800 264 800 528 800 800 C536 800 272 800 0 800 C0 536 0 272 0 0 Z " fill="#FEFEFE" transform="translate(0,0)"/>
<path d="M0 0 C7.1962344 6.67018655 14.1815978 13.53589021 21.12106323 20.47111511 C22.37507236 21.72190252 23.62915289 22.97261833 24.88330078 24.2232666 C27.49198962 26.82601307 30.09865016 29.43077137 32.70407104 32.03678894 C36.0343361 35.3671562 39.37146655 38.69055286 42.7103405 42.01228619 C45.29431829 44.58513202 47.87372473 47.16252367 50.45187759 49.74120522 C51.68059929 50.96875176 52.91093155 52.19468849 54.14294052 53.41893578 C55.8629497 55.12910591 57.57645878 56.84554601 59.2885437 58.56364441 C60.04289452 59.30956596 60.04289452 59.30956596 60.81248474 60.07055664 C64.56226507 63.85375518 68.31346003 67.73476595 69.34762573 73.08049011 C69.33731323 73.96865417 69.32700073 74.85681824 69.31637573 75.77189636 C69.33184448 77.10027527 69.33184448 77.10027527 69.34762573 78.45549011 C68.06852415 85.38709205 63.40866227 90.17865649 58.56661987 94.95646667 C57.94983871 95.5768985 57.33305756 96.19733032 56.69758606 96.83656311 C54.6728729 98.86933045 52.63757839 100.89111067 50.60153198 102.91252136 C49.18381993 104.32971429 47.76662711 105.74742682 46.34992981 107.16563416 C43.38649137 110.12898311 40.41797418 113.08711664 37.44552612 116.04142761 C33.6395353 119.82470127 29.84474964 123.61898111 26.05347538 127.416996 C23.13105347 130.34276167 20.20366174 133.2635123 17.2746563 136.18268585 C15.87352099 137.57997827 14.47372406 138.97861409 13.07530403 140.37862396 C11.12026481 142.33403475 9.15884346 144.28280969 7.19552612 146.22990417 C6.62133942 146.8065683 6.04715271 147.38323242 5.45556641 147.97737122 C0.66745666 152.70261415 -3.12705723 155.76289499 -10.12112427 155.77189636 C-15.28458034 155.61984367 -18.36603297 155.05654787 -22.18362427 151.33439636 C-24.86573304 147.92693741 -26.08027649 145.16117856 -26.62112427 140.83439636 C-25.52277383 132.04759285 -20.92836292 127.52905237 -14.79690552 121.55705261 C-13.9798967 120.74570358 -13.16288788 119.93435455 -12.32112122 119.09841919 C-9.72206411 116.52166452 -7.10941552 113.95920595 -4.49612427 111.39689636 C-2.72632731 109.6471721 -0.95743654 107.89653075 0.81051636 106.14494324 C5.13536301 101.86408272 9.4714394 97.59485993 13.81637573 93.33439636 C-19.93425611 93.24282388 -53.68485702 93.17234905 -87.43558553 93.13013504 C-91.42093458 93.12513227 -95.40628339 93.11995497 -99.39163208 93.1146698 C-100.18503713 93.11362056 -100.97844217 93.11257132 -101.79588979 93.11149028 C-114.6395114 93.09408908 -127.48306133 93.06255297 -140.32664043 93.02578518 C-153.50713922 92.98836781 -166.6876005 92.96615883 -179.86815023 92.95804238 C-188.00008175 92.95255625 -196.13181066 92.93523417 -204.2636798 92.90273049 C-210.5011513 92.87907016 -216.73846861 92.87657854 -222.97597885 92.88196564 C-225.53337221 92.88086477 -228.09077322 92.87290258 -230.64812088 92.85757446 C-234.14009588 92.83767022 -237.63120437 92.84245979 -241.12319946 92.8533783 C-242.64073374 92.83590125 -242.64073374 92.83590125 -244.18892527 92.81807113 C-252.69074337 92.88991123 -258.9462856 95.46675612 -265.18362427 101.33439636 C-271.85631768 110.39677395 -271.99919114 119.72259482 -271.84768677 130.44767761 C-271.84878331 132.07286085 -271.85310641 133.69804476 -271.86047363 135.32321167 C-271.87377599 139.56710707 -271.85520522 143.8101451 -271.82601929 148.05393982 C-271.78035085 154.8614214 -271.76511261 161.66845157 -271.78556442 168.47604942 C-271.78519384 170.84004907 -271.75952838 173.20283482 -271.73187256 175.56665039 C-271.7311874 177.02349333 -271.73149127 178.48033718 -271.73294067 179.93717957 C-271.72372589 181.20004288 -271.71451111 182.46290619 -271.70501709 183.76403809 C-272.39155889 188.8855664 -274.35978996 192.67636517 -278.24612427 196.20939636 C-282.9668238 198.9504477 -287.87988467 198.92186206 -293.18362427 198.33439636 C-298.10483146 195.96492623 -300.54100632 193.0590148 -303.18362427 188.33439636 C-303.56346799 185.58903046 -303.73257455 183.25149206 -303.70120239 180.51579285 C-303.70821167 179.75551285 -303.71522095 178.99523285 -303.72244263 178.21191406 C-303.73998092 175.7093959 -303.72840715 173.20801898 -303.71487427 170.70549011 C-303.71757235 168.95158676 -303.72145739 167.19768488 -303.72647095 165.44378662 C-303.73236201 161.76777404 -303.72382311 158.0921507 -303.70510864 154.41618347 C-303.68243708 149.73825126 -303.69536909 145.06124315 -303.7193985 140.3833456 C-303.73396836 136.75840511 -303.72919774 133.13367743 -303.71888733 129.50872993 C-303.71624464 127.7862086 -303.71940183 126.06366705 -303.72880554 124.34116936 C-303.80596019 106.22138742 -300.03046444 90.86153724 -286.87112427 77.45939636 C-273.43545791 64.72025842 -257.16212923 60.02063682 -238.95861816 60.05592346 C-237.87201609 60.05013106 -236.78541402 60.04433866 -235.66588461 60.03837073 C-232.04855754 60.02145364 -228.4313587 60.01850136 -224.81399536 60.01554871 C-222.21156505 60.00624482 -219.6091377 59.99607546 -217.00671387 59.98510742 C-211.41601472 59.962905 -205.82533366 59.94784968 -200.23460007 59.93774033 C-192.15148691 59.9231137 -184.06843682 59.89756587 -175.98536082 59.86940904 C-162.86901095 59.8240132 -149.75265197 59.7873687 -136.63626099 59.75627136 C-123.8999166 59.72605623 -111.16359446 59.6916924 -98.42727661 59.65177917 C-97.64133701 59.64931763 -96.85539742 59.64685608 -96.04564147 59.64431994 C-92.10255278 59.63194476 -88.15946436 59.61948834 -84.21637607 59.60699153 C-51.53882235 59.50353173 -18.86124423 59.41429297 13.81637573 59.33439636 C13.34475006 58.86943253 12.87312439 58.40446869 12.38720703 57.92541504 C7.4793635 53.08394962 2.58211816 48.23195023 -2.30911255 43.373703 C-4.13584142 41.562059 -5.96525401 39.75311688 -7.7973938 37.94694519 C-10.43064481 35.3500887 -13.05408684 32.74366372 -15.67581177 30.13517761 C-16.49669281 29.32978043 -17.31757385 28.52438324 -18.16333008 27.69458008 C-18.92396759 26.93416916 -19.6846051 26.17375824 -20.46829224 25.39030457 C-21.13891693 24.72634171 -21.80954163 24.06237885 -22.50048828 23.3782959 C-25.99571907 19.13389697 -26.63294613 14.87968064 -26.50003052 9.54533386 C-25.83624449 4.90702658 -23.04433876 2.17246047 -19.80862427 -0.97810364 C-13.59820105 -4.97051856 -5.86159014 -4.4710466 0 0 Z " fill="#068952" transform="translate(517.1836242675781,195.6656036376953)"/>
<path d="M0 0 C3.58905603 2.587459 5.97395023 4.86418994 7.6875 8.9375 C8.43605489 14.51815131 8.36752369 20.06165441 8.31640625 25.68359375 C8.31723649 27.33919938 8.31970171 28.99480491 8.32371521 30.65040588 C8.32656901 34.11964765 8.31192816 37.58824248 8.28442383 41.05737305 C8.25058182 45.458147 8.25628245 49.85774681 8.2750864 54.25857449 C8.28577599 57.68121224 8.27660777 61.10358771 8.26170158 64.52620125 C8.25659004 66.14575478 8.25691402 67.76533657 8.26324654 69.38488579 C8.31181361 89.29118083 4.1364134 106.54916905 -10.26171875 121.13671875 C-23.06957649 133.34789855 -39.17695769 137.07749385 -56.34153748 137.09571838 C-57.33573812 137.10065636 -58.32993877 137.10559434 -59.3542667 137.11068195 C-62.67685 137.12600774 -65.99941405 137.13440424 -69.32202148 137.14282227 C-71.70726184 137.15240465 -74.09250052 137.16241495 -76.47773743 137.17282104 C-82.27673354 137.19703356 -88.07573245 137.2167902 -93.87475156 137.23457379 C-100.62467205 137.25551452 -107.37456759 137.2819622 -114.12446702 137.30874526 C-126.16100922 137.35635971 -138.19756292 137.39964046 -150.23413086 137.44018555 C-161.9239186 137.47957181 -173.61369614 137.5210055 -185.3034668 137.56518555 C-186.02448066 137.56790982 -186.74549453 137.57063409 -187.4883573 137.57344092 C-191.10560823 137.58712091 -194.722859 137.60084108 -198.34010971 137.61458123 C-228.33088522 137.72844939 -258.32168263 137.83520764 -288.3125 137.9375 C-287.60506149 138.63827667 -287.60506149 138.63827667 -286.8833313 139.35321045 C-281.97852098 144.21379604 -277.08074722 149.08138975 -272.18701172 153.953125 C-270.35938393 155.77069126 -268.52996566 157.58645896 -266.69873047 159.40039062 C-264.06786609 162.00701397 -261.44349467 164.62002361 -258.8203125 167.234375 C-257.99943146 168.04493347 -257.17855042 168.85549194 -256.33279419 169.69061279 C-255.57215668 170.45109924 -254.81151917 171.21158569 -254.02783203 171.99511719 C-253.35720734 172.66130066 -252.68658264 173.32748413 -251.99563599 174.01385498 C-248.43588467 178.08227129 -247.92434547 181.43289964 -248.0625 186.69140625 C-248.56944046 191.24594949 -250.39693693 194.04668187 -253.625 197.1875 C-258.2720912 200.21351288 -262.77020351 201.71342151 -268.3125 200.9375 C-271.17894636 199.54062668 -273.86399506 197.98827825 -276.3125 195.9375 C-276.3125 195.2775 -276.3125 194.6175 -276.3125 193.9375 C-277.3025 193.6075 -278.2925 193.2775 -279.3125 192.9375 C-280.70703125 191.484375 -280.70703125 191.484375 -282.125 189.6875 C-284.15737515 187.20688171 -286.1733218 185.11613403 -288.6875 183.125 C-289.55375 182.403125 -290.42 181.68125 -291.3125 180.9375 C-291.3125 180.2775 -291.3125 179.6175 -291.3125 178.9375 C-292.6325 178.2775 -293.9525 177.6175 -295.3125 176.9375 C-295.3125 176.2775 -295.3125 175.6175 -295.3125 174.9375 C-296.3025 174.6075 -297.2925 174.2775 -298.3125 173.9375 C-299.63793945 172.59301758 -299.63793945 172.59301758 -301.11328125 170.76953125 C-306.26627185 164.69834679 -311.94748798 159.15329301 -317.58374023 153.53588867 C-319.50947307 151.61555348 -321.42975521 149.68988236 -323.34960938 147.76367188 C-324.58040835 146.53353309 -325.81151715 145.30370421 -327.04296875 144.07421875 C-327.61283005 143.50233322 -328.18269135 142.93044769 -328.76982117 142.3412323 C-331.01127085 140.11292304 -333.15280172 138.05491418 -335.7043457 136.17895508 C-336.23503662 135.7692749 -336.76572754 135.35959473 -337.3125 134.9375 C-337.3125 134.2775 -337.3125 133.6175 -337.3125 132.9375 C-337.9725 132.9375 -338.6325 132.9375 -339.3125 132.9375 C-342.9092066 127.87963134 -343.80028304 124.04125317 -344.0390625 117.87890625 C-341.61752885 108.07560067 -330.35042435 99.66640182 -323.41015625 92.734375 C-322.04522771 91.36555349 -320.68052094 89.99651082 -319.31602478 88.6272583 C-316.46578 85.76958205 -313.61173079 82.91577214 -310.75512695 80.06445312 C-307.10405307 76.41918608 -303.46450294 72.76264812 -299.82793522 69.10291672 C-297.01667888 66.27690055 -294.19849618 63.45787144 -291.37829399 60.64078522 C-290.03360256 59.29558226 -288.69125663 57.94803026 -287.35136604 56.59804535 C-285.47581741 54.71009888 -283.59089282 52.83201882 -281.70336914 50.95605469 C-280.88564026 50.1268602 -280.88564026 50.1268602 -280.0513916 49.28091431 C-275.62180916 44.91078219 -271.16668573 41.29427322 -264.8125 40.5 C-259.25157012 41.19511624 -255.1008835 42.69447169 -251.4375 47 C-248.9587361 50.42652657 -248.14693408 52.05023022 -248.0625 56.1875 C-248.03671875 56.93515625 -248.0109375 57.6828125 -247.984375 58.453125 C-248.97656613 65.96542929 -254.56754719 70.58560849 -259.69921875 75.6171875 C-260.92473198 76.83633347 -260.92473198 76.83633347 -262.17500305 78.08010864 C-264.77635727 80.66472125 -267.38796676 83.23868461 -270 85.8125 C-271.76956774 87.56701517 -273.53845596 89.32221598 -275.30664062 91.078125 C-279.63408451 95.37255947 -283.9699873 99.65830653 -288.3125 103.9375 C-257.39859475 104.05164078 -226.48474538 104.14008841 -195.57067934 104.19282665 C-191.91837573 104.19907994 -188.26607253 104.20555158 -184.61376953 104.2121582 C-183.52313918 104.21412553 -183.52313918 104.21412553 -182.41047589 104.2161326 C-170.64808833 104.23787043 -158.88582334 104.27728293 -147.12350841 104.32326398 C-135.04815526 104.37007395 -122.97286616 104.39780497 -110.89742601 104.40794247 C-104.11737018 104.41417868 -97.33756963 104.42913784 -90.55760574 104.46615028 C-84.17347691 104.50013634 -77.78973973 104.51054738 -71.40552902 104.50303841 C-69.06504944 104.50441175 -66.72455651 104.51432816 -64.38415527 104.53352737 C-61.18170265 104.55850542 -57.98071728 104.55238688 -54.77822876 104.53877258 C-53.85796579 104.55333679 -52.93770282 104.567901 -51.98955309 104.58290654 C-43.32970592 104.48379752 -36.43967475 101.38033447 -30.375 95.1875 C-23.48960347 87.40547935 -23.89145573 77.38760243 -23.93237495 67.65001869 C-23.94157368 65.2572291 -23.93116511 62.86520837 -23.91575623 60.47245789 C-23.87588278 53.67655435 -23.87445833 46.88071799 -23.87670898 40.0847168 C-23.87676015 35.91150025 -23.85756849 31.7387044 -23.82737541 27.56560326 C-23.81658901 25.21559945 -23.82865165 22.86641081 -23.84120178 20.51643372 C-23.8322956 19.06994836 -23.8222206 17.62346957 -23.81079102 16.17700195 C-23.81095718 14.92063431 -23.81112335 13.66426666 -23.81129456 12.36982727 C-23.04751214 7.11405373 -20.55676292 4.06326169 -16.6875 0.5625 C-11.0749721 -2.13982825 -5.87252089 -1.88363878 0 0 Z " fill="#02C372" transform="translate(557.3125,407.0625)"/>
</svg>
