<svg version="1.1" id="Layer_1" xmlns="http://www.w3.org/2000/svg" xmlns:xlink="http://www.w3.org/1999/xlink" x="0px" y="0px"
	 width="100%" viewBox="0 0 512 512" enable-background="new 0 0 512 512" xml:space="preserve">
<path fill="#048952" opacity="1.000000" stroke="none" 
	d="
M513.000000,83.000000 
	C513.000000,198.687561 513.000000,314.375122 512.621216,430.691895 
	C509.712097,440.143433 508.103119,449.371674 504.437256,457.693848 
	C498.821655,470.442444 490.271118,481.262512 479.383484,490.321869 
	C471.166321,497.159119 462.525543,503.093323 452.533081,506.732117 
	C445.524017,509.284485 438.189301,510.942566 431.000000,513.000000 
	C397.979095,513.000000 364.958221,513.000000 331.345825,512.649292 
	C326.073456,511.493164 322.592163,509.037415 321.253723,504.417938 
	C320.447998,501.637207 320.059967,498.640137 320.051208,495.738586 
	C319.965607,467.408966 320.157562,439.077362 319.868286,410.750458 
	C319.809387,404.986816 318.314087,399.185150 317.043976,393.498627 
	C315.001343,384.353271 310.169739,376.720062 303.108307,370.627350 
	C303.607697,370.032806 303.782196,369.613037 304.022064,369.571594 
	C307.207062,369.020996 310.384644,368.351654 313.595886,368.040863 
	C333.085449,366.154633 351.373474,360.298920 368.405518,350.815857 
	C384.286682,341.973511 397.295471,330.022400 405.245422,313.309906 
	C417.449646,287.654022 421.708130,260.688965 419.112640,232.395309 
	C417.283936,212.460327 410.261627,194.962799 397.330933,179.764038 
	C394.670624,176.637100 393.732513,173.750870 395.592285,169.321564 
	C397.682129,164.344269 398.447296,158.640839 398.900818,153.179581 
	C400.068665,139.116409 397.451813,125.492172 392.957703,112.201187 
	C391.971375,109.284210 391.004272,106.352371 386.776855,106.890556 
	C383.185150,107.347794 379.389984,106.765610 375.933746,107.634064 
	C357.686340,112.219086 341.097900,120.555695 325.584198,131.039474 
	C322.488525,133.131439 319.677673,133.574493 316.184753,132.671402 
	C291.414368,126.267044 266.363495,123.689308 240.727188,125.831482 
	C225.887619,127.071487 211.296402,128.992249 196.905899,132.818207 
	C194.610413,133.428497 191.477158,132.705215 189.279922,131.552505 
	C179.829361,126.594620 170.896194,120.542290 161.179855,116.227966 
	C150.288971,111.392120 139.334869,106.013237 126.704857,106.870468 
	C123.722038,107.072914 121.995483,107.949142 121.175758,110.564384 
	C115.383583,129.043610 111.941788,147.654648 117.912033,166.843567 
	C119.375992,171.548828 120.361687,175.810623 116.227859,180.507919 
	C100.832535,198.001755 94.537529,219.070221 94.067291,242.033615 
	C93.949547,247.783401 94.832565,253.546478 94.962326,259.310028 
	C95.250992,272.132172 98.258797,284.374359 101.942604,296.584442 
	C112.616570,331.963715 137.886322,351.744904 171.840698,361.883759 
	C184.175522,365.566956 197.002731,367.601227 209.681595,370.404724 
	C209.779953,370.086395 209.768417,370.633942 209.491425,370.945618 
	C202.569824,378.734497 197.000549,387.487396 195.823639,397.872894 
	C195.035004,404.832092 190.855972,406.451141 185.617905,408.001709 
	C174.431992,411.312836 163.006729,412.486420 151.616348,410.030640 
	C137.665466,407.022797 128.082748,397.816956 121.019844,385.886139 
	C112.226746,371.032684 100.197342,360.638763 82.841095,357.421814 
	C77.833557,356.493652 72.733902,356.099243 68.392143,361.350189 
	C70.809372,364.003601 72.715034,367.277283 75.558868,369.019745 
	C90.706154,378.300842 100.511398,391.738922 106.547066,408.072937 
	C111.985870,422.791656 121.862862,433.150391 136.695724,437.710663 
	C151.707047,442.325836 167.275177,443.410431 182.953995,441.058350 
	C186.457581,440.532715 190.003235,440.287750 194.000641,439.863556 
	C194.000641,442.000732 194.000671,443.635956 194.000641,445.271149 
	C194.000443,462.269073 193.829407,479.269470 194.075623,496.263824 
	C194.190201,504.173370 190.827148,509.509369 184.000000,513.000000 
	C150.645767,513.000000 117.291542,513.000000 83.308075,512.621216 
	C74.315971,509.891113 65.653976,508.275513 57.657001,505.024200 
	C44.032352,499.484802 32.876331,490.350647 23.391178,479.011993 
	C15.796932,469.933807 9.431359,460.278046 5.979957,448.897461 
	C4.183276,442.973083 2.651462,436.968414 0.999999,431.000000 
	C1.000000,315.312439 1.000000,199.624878 1.378810,83.308144 
	C4.111113,74.313187 5.737499,65.652870 8.980328,57.647331 
	C14.508271,44.000542 23.691273,32.876358 35.010170,23.359764 
	C44.067230,15.744857 53.717770,9.410180 65.094093,5.979020 
	C71.023888,4.190562 77.028938,2.651636 83.000000,1.000000 
	C198.687561,1.000000 314.375122,1.000000 430.691956,1.378745 
	C439.686310,4.110480 448.346313,5.735601 456.350616,8.978885 
	C469.992004,14.506239 481.142731,23.659584 490.626007,35.002029 
	C497.146942,42.801384 503.007446,50.901150 506.237885,60.595909 
	C508.702911,67.993637 510.760895,75.526993 513.000000,83.000000 
z"/>
<path fill="#FFFFFF" opacity="1.000000" stroke="none" 
	d="
M184.468658,513.000000 
	C190.827148,509.509369 194.190201,504.173370 194.075623,496.263824 
	C193.829407,479.269470 194.000443,462.269073 194.000641,445.271149 
	C194.000671,443.635956 194.000641,442.000732 194.000641,439.863556 
	C190.003235,440.287750 186.457581,440.532715 182.953995,441.058350 
	C167.275177,443.410431 151.707047,442.325836 136.695724,437.710663 
	C121.862862,433.150391 111.985870,422.791656 106.547066,408.072937 
	C100.511398,391.738922 90.706154,378.300842 75.558868,369.019745 
	C72.715034,367.277283 70.809372,364.003601 68.392143,361.350189 
	C72.733902,356.099243 77.833557,356.493652 82.841095,357.421814 
	C100.197342,360.638763 112.226746,371.032684 121.019844,385.886139 
	C128.082748,397.816956 137.665466,407.022797 151.616348,410.030640 
	C163.006729,412.486420 174.431992,411.312836 185.617905,408.001709 
	C190.855972,406.451141 195.035004,404.832092 195.823639,397.872894 
	C197.000549,387.487396 202.569824,378.734497 209.491425,370.945618 
	C209.768417,370.633942 209.779953,370.086395 209.681595,370.404724 
	C197.002731,367.601227 184.175522,365.566956 171.840698,361.883759 
	C137.886322,351.744904 112.616570,331.963715 101.942604,296.584442 
	C98.258797,284.374359 95.250992,272.132172 94.962326,259.310028 
	C94.832565,253.546478 93.949547,247.783401 94.067291,242.033615 
	C94.537529,219.070221 100.832535,198.001755 116.227859,180.507919 
	C120.361687,175.810623 119.375992,171.548828 117.912033,166.843567 
	C111.941788,147.654648 115.383583,129.043610 121.175758,110.564384 
	C121.995483,107.949142 123.722038,107.072914 126.704857,106.870468 
	C139.334869,106.013237 150.288971,111.392120 161.179855,116.227966 
	C170.896194,120.542290 179.829361,126.594620 189.279922,131.552505 
	C191.477158,132.705215 194.610413,133.428497 196.905899,132.818207 
	C211.296402,128.992249 225.887619,127.071487 240.727188,125.831482 
	C266.363495,123.689308 291.414368,126.267044 316.184753,132.671402 
	C319.677673,133.574493 322.488525,133.131439 325.584198,131.039474 
	C341.097900,120.555695 357.686340,112.219086 375.933746,107.634064 
	C379.389984,106.765610 383.185150,107.347794 386.776855,106.890556 
	C391.004272,106.352371 391.971375,109.284210 392.957703,112.201187 
	C397.451813,125.492172 400.068665,139.116409 398.900818,153.179581 
	C398.447296,158.640839 397.682129,164.344269 395.592285,169.321564 
	C393.732513,173.750870 394.670624,176.637100 397.330933,179.764038 
	C410.261627,194.962799 417.283936,212.460327 419.112640,232.395309 
	C421.708130,260.688965 417.449646,287.654022 405.245422,313.309906 
	C397.295471,330.022400 384.286682,341.973511 368.405518,350.815857 
	C351.373474,360.298920 333.085449,366.154633 313.595886,368.040863 
	C310.384644,368.351654 307.207062,369.020996 304.022064,369.571594 
	C303.782196,369.613037 303.607697,370.032806 303.108307,370.627350 
	C310.169739,376.720062 315.001343,384.353271 317.043976,393.498627 
	C318.314087,399.185150 319.809387,404.986816 319.868286,410.750458 
	C320.157562,439.077362 319.965607,467.408966 320.051208,495.738586 
	C320.059967,498.640137 320.447998,501.637207 321.253723,504.417938 
	C322.592163,509.037415 326.073456,511.493164 330.877197,512.649292 
	C282.312439,513.000000 233.624878,513.000000 184.468658,513.000000 
M149.784775,419.711609 
	C152.654785,417.772583 152.713303,414.978027 150.308304,413.282288 
	C147.874390,411.566193 144.500885,409.621643 141.504959,412.349640 
	C139.768051,413.931213 138.854202,416.600586 141.716797,418.047882 
	C143.911453,419.157440 146.564865,419.359619 149.784775,419.711609 
M188.374100,420.147522 
	C191.089294,419.277069 193.061630,417.282684 191.646133,414.722809 
	C190.819275,413.227448 187.798889,412.076630 185.905731,412.255646 
	C183.453003,412.487579 180.506012,413.179321 180.895187,417.347351 
	C181.405518,422.813324 184.972580,420.696747 188.374100,420.147522 
M172.934448,417.691833 
	C170.667999,413.764771 166.911819,414.840759 163.645782,415.333710 
	C162.604660,415.490845 161.194138,417.731628 161.199142,419.014160 
	C161.204117,420.296356 162.486649,422.143127 163.702545,422.744110 
	C167.310089,424.526978 171.155426,422.590820 172.934448,417.691833 
M123.299759,405.802490 
	C125.459000,407.679138 127.618240,409.555786 130.677307,412.214478 
	C131.922211,409.335236 134.097534,406.383575 133.429626,405.436066 
	C131.806061,403.132751 128.861816,401.760406 126.449577,400.013031 
	C125.311646,401.702606 124.173721,403.392181 123.299759,405.802490 
M113.856026,385.668243 
	C110.202385,387.966034 109.903000,390.328644 113.374718,393.697693 
	C114.469200,394.759766 116.568321,394.786591 118.207634,395.287231 
	C118.550606,393.426636 119.669502,391.227875 119.042831,389.789825 
	C118.234688,387.935394 116.029434,386.689789 113.856026,385.668243 
M104.130310,380.632416 
	C106.182503,380.153351 108.234703,379.674316 111.292542,378.960510 
	C108.972839,376.131165 107.985573,374.264465 106.437477,373.276825 
	C105.441757,372.641541 103.311195,372.837494 102.276405,373.533661 
	C101.548309,374.023499 101.498199,376.037811 101.722588,377.265991 
	C101.907608,378.278687 102.939835,379.136566 104.130310,380.632416 
M91.056282,367.249786 
	C92.651939,368.165588 94.186539,369.237122 95.880798,369.901489 
	C96.383080,370.098419 97.737267,369.308167 97.982994,368.686462 
	C98.321854,367.829224 98.340111,366.468475 97.863235,365.734039 
	C96.227501,363.214813 93.116783,363.613251 91.056282,367.249786 
z"/>
<path fill="#FFFFFF" opacity="1.000000" stroke="none" 
	d="
M431.468658,513.000000 
	C438.189301,510.942566 445.524017,509.284485 452.533081,506.732117 
	C462.525543,503.093323 471.166321,497.159119 479.383484,490.321869 
	C490.271118,481.262512 498.821655,470.442444 504.437256,457.693848 
	C508.103119,449.371674 509.712097,440.143433 512.621216,431.160522 
	C513.000000,458.260223 513.000000,485.520477 513.000000,513.000000 
	C485.979492,513.000000 458.958405,513.000000 431.468658,513.000000 
z"/>
<path fill="#FFFFFF" opacity="1.000000" stroke="none" 
	d="
M513.000000,82.531342 
	C510.760895,75.526993 508.702911,67.993637 506.237885,60.595909 
	C503.007446,50.901150 497.146942,42.801384 490.626007,35.002029 
	C481.142731,23.659584 469.992004,14.506239 456.350616,8.978885 
	C448.346313,5.735601 439.686310,4.110480 431.160645,1.378745 
	C458.260223,1.000000 485.520477,1.000000 513.000000,1.000000 
	C513.000000,28.020498 513.000000,55.041592 513.000000,82.531342 
z"/>
<path fill="#FFFFFF" opacity="1.000000" stroke="none" 
	d="
M0.999999,431.468658 
	C2.651462,436.968414 4.183276,442.973083 5.979957,448.897461 
	C9.431359,460.278046 15.796932,469.933807 23.391178,479.011993 
	C32.876331,490.350647 44.032352,499.484802 57.657001,505.024200 
	C65.653976,508.275513 74.315971,509.891113 82.839417,512.621216 
	C55.739773,513.000000 28.479548,513.000000 1.000000,513.000000 
	C1.000000,485.979492 1.000000,458.958405 0.999999,431.468658 
z"/>
<path fill="#FFFFFF" opacity="1.000000" stroke="none" 
	d="
M82.531342,1.000000 
	C77.028938,2.651636 71.023888,4.190562 65.094093,5.979020 
	C53.717770,9.410180 44.067230,15.744857 35.010170,23.359764 
	C23.691273,32.876358 14.508271,44.000542 8.980328,57.647331 
	C5.737499,65.652870 4.111113,74.313187 1.378810,82.839485 
	C1.000000,55.739769 1.000000,28.479540 1.000000,1.000000 
	C28.020498,1.000000 55.041592,1.000000 82.531342,1.000000 
z"/>
<path fill="#048952" opacity="1.000000" stroke="none" 
	d="
M149.399506,419.838501 
	C146.564865,419.359619 143.911453,419.157440 141.716797,418.047882 
	C138.854202,416.600586 139.768051,413.931213 141.504959,412.349640 
	C144.500885,409.621643 147.874390,411.566193 150.308304,413.282288 
	C152.713303,414.978027 152.654785,417.772583 149.399506,419.838501 
z"/>
<path fill="#048952" opacity="1.000000" stroke="none" 
	d="
M188.079544,420.432373 
	C184.972580,420.696747 181.405518,422.813324 180.895187,417.347351 
	C180.506012,413.179321 183.453003,412.487579 185.905731,412.255646 
	C187.798889,412.076630 190.819275,413.227448 191.646133,414.722809 
	C193.061630,417.282684 191.089294,419.277069 188.079544,420.432373 
z"/>
<path fill="#048952" opacity="1.000000" stroke="none" 
	d="
M172.960052,418.101044 
	C171.155426,422.590820 167.310089,424.526978 163.702545,422.744110 
	C162.486649,422.143127 161.204117,420.296356 161.199142,419.014160 
	C161.194138,417.731628 162.604660,415.490845 163.645782,415.333710 
	C166.911819,414.840759 170.667999,413.764771 172.960052,418.101044 
z"/>
<path fill="#048952" opacity="1.000000" stroke="none" 
	d="
M123.167770,405.442139 
	C124.173721,403.392181 125.311646,401.702606 126.449570,400.013062 
	C128.861816,401.760406 131.806061,403.132751 133.429626,405.436066 
	C134.097534,406.383575 131.922211,409.335236 130.677307,412.214478 
	C127.618240,409.555786 125.459000,407.679138 123.167770,405.442139 
z"/>
<path fill="#048952" opacity="1.000000" stroke="none" 
	d="
M114.140945,385.425110 
	C116.029434,386.689789 118.234688,387.935394 119.042831,389.789825 
	C119.669502,391.227875 118.550606,393.426636 118.207634,395.287231 
	C116.568321,394.786591 114.469200,394.759766 113.374718,393.697693 
	C109.903000,390.328644 110.202385,387.966034 114.140945,385.425110 
z"/>
<path fill="#048952" opacity="1.000000" stroke="none" 
	d="
M103.863464,380.347717 
	C102.939835,379.136566 101.907608,378.278687 101.722588,377.265991 
	C101.498199,376.037811 101.548309,374.023499 102.276405,373.533661 
	C103.311195,372.837494 105.441757,372.641541 106.437477,373.276825 
	C107.985573,374.264465 108.972839,376.131165 111.292542,378.960510 
	C108.234703,379.674316 106.182503,380.153351 103.863464,380.347717 
z"/>
<path fill="#048952" opacity="1.000000" stroke="none" 
	d="
M91.035172,366.850403 
	C93.116783,363.613251 96.227501,363.214813 97.863235,365.734039 
	C98.340111,366.468475 98.321854,367.829224 97.982994,368.686462 
	C97.737267,369.308167 96.383080,370.098419 95.880798,369.901489 
	C94.186539,369.237122 92.651939,368.165588 91.035172,366.850403 
z"/>
</svg>